# xmcd
#
# Track frame offsets: 
#        150
#        12480
#        23985
#        36517
#        48350
#        61417
#        73065
#        83987
#        95095
#        106530
#        117282
#        128600
#        141080
#        153145
#        164075
#        175145
#        187515
#        199107
#        211577
#        222730
#        235210
#        247987
#        257577
#        270452
#        281442
#        294012
#        306260
#        317975
#        329805
#        341960
#
# Disc length: 4709 seconds
#
# Revision: 3
# Processed by: cddbd v1.5.2PL0 Copyright (c) Steve Scherf et al.
# Submitted via: ExactAudioCopy v1.1
#
DISCID=bc12631e
DTITLE=Bob Wills and His Texas Playboys - San Antonio Rose (Bear Family)
DTITLE=Various Artist - Disc 3
DYEAR=2000
DGENRE=Country
TTITLE0=White Heat
TTITLE1=Dedicated To You
TTITLE2=Playboy Stomp
TTITLE3=Steel Guitar Stomp
TTITLE4=Rosetta
TTITLE5=Bleeding Hearted Blues
TTITLE6=Blue Yodel #1
TTITLE7=Tulsa Stomp
TTITLE8=Tie Me To Your Apron Strings Again
TTITLE9=Never No More Hard Times Blues
TTITLE10=Sunbonnet Sue
TTITLE11=The New St. Louis Blues
TTITLE12=Loveless Love
TTITLE13=I'm A Ding Dong Daddy (From Dumas)
TTITLE14=Oozlin' Daddy Blues
TTITLE15=Black Rider
TTITLE16=Everybody Does It In Hawaii
TTITLE17=Alexander's Ragtime Band
TTITLE18=Blue Prelude
TTITLE19=Down Hearted Blues
TTITLE20=Little Heaven Of The Seven Seas
TTITLE21=Sophisticated Hula
TTITLE22=Pray For The Lights To Go Out
TTITLE23=Gambling Polka Dot Blues
TTITLE24=Keep Knocking (But You Can't Come In)
TTITLE25=Loveless Love
TTITLE26=Oh, Lady Be Good
TTITLE27=Way Down Upon The Swanee River
TTITLE28=Don't Stop Loving Me
TTITLE29=Oh You Beautiful Doll
EXTD=
EXTT0=
EXTT1=
EXTT2=
EXTT3=
EXTT4=
EXTT5=
EXTT6=
EXTT7=
EXTT8=
EXTT9=
EXTT10=
EXTT11=
EXTT12=
EXTT13=
EXTT14=
EXTT15=
EXTT16=
EXTT17=
EXTT18=
EXTT19=
EXTT20=
EXTT21=
EXTT22=
EXTT23=
EXTT24=
EXTT25=
EXTT26=
EXTT27=
EXTT28=
EXTT29=
PLAYORDER=
